<svg width="187" height="53" viewBox="0 0 187 53" fill="none" xmlns="http://www.w3.org/2000/svg">
<path d="M13.915 34.954V23.293L11.086 35H8.073L5.06 23.224V35H1.15V26.996L5.037 23.086L5.014 23.063H1.15V18.9H6.555L9.545 29.503L12.351 18.9H17.825V34.954H13.915ZM24.0395 28.491V35H20.1295V32.424L24.0395 28.491H20.1295V18.9H24.0395V25.041H28.7775V18.9H32.6875V35H28.7775V28.491H24.0395ZM34.9986 35V31.228H38.4716V35H34.9986ZM54.7091 35L49.4881 22.373V35H47.1651V18.486H50.2701L55.8131 31.895L61.3331 18.486H64.4611V35H62.1151V22.35L56.8711 35H54.7091ZM75.2303 35V33.114C74.4713 34.471 73.1143 35.23 71.3203 35.23C68.7903 35.23 67.1343 33.781 67.1343 31.55C67.1343 29.158 69.0433 27.916 72.6773 27.916C73.3903 27.916 73.9653 27.939 74.9543 28.054V27.157C74.9543 25.409 74.0113 24.42 72.4013 24.42C70.6993 24.42 69.6643 25.432 69.5953 27.134H67.4793C67.5943 24.397 69.5493 22.58 72.4013 22.58C75.4143 22.58 77.1623 24.282 77.1623 27.18V35H75.2303ZM69.3423 31.481C69.3423 32.746 70.2853 33.574 71.7803 33.574C73.7353 33.574 74.9543 32.355 74.9543 30.492V29.503C74.0573 29.388 73.4133 29.365 72.8153 29.365C70.4923 29.365 69.3423 30.055 69.3423 31.481ZM89.9282 31.366C89.9282 33.758 88.0652 35.23 84.8222 35.23C81.6022 35.23 79.6932 33.643 79.4632 31.021H81.6942C81.7862 32.539 83.0052 33.482 84.8682 33.482C86.5012 33.482 87.5822 32.907 87.5822 31.757C87.5822 30.745 86.9612 30.308 85.4432 30.009L83.4652 29.641C81.2112 29.204 79.9462 28.054 79.9462 26.214C79.9462 24.075 81.8092 22.58 84.6382 22.58C87.5592 22.58 89.5372 24.144 89.7442 26.651H87.5132C87.3752 25.179 86.2942 24.328 84.6612 24.328C83.1892 24.328 82.2002 24.949 82.2002 26.007C82.2002 26.996 82.8212 27.456 84.2932 27.732L86.3632 28.123C88.7782 28.56 89.9282 29.618 89.9282 31.366ZM99.1843 32.746V34.793C98.4713 35.115 97.8503 35.23 97.1143 35.23C94.8603 35.23 93.2963 34.011 93.2963 31.32V24.788H90.6053V22.81H93.2963V19.199H95.6193V22.81H99.2993V24.788H95.6193V30.791C95.6193 32.47 96.4243 33.068 97.6663 33.068C98.2183 33.068 98.7013 32.976 99.1843 32.746ZM106.193 35.23C102.674 35.23 100.305 32.677 100.305 28.836C100.305 25.225 102.766 22.58 106.124 22.58C109.758 22.58 112.173 25.524 111.759 29.48H102.674C102.858 31.964 104.1 33.413 106.147 33.413C107.872 33.413 109.068 32.47 109.459 30.883H111.759C111.161 33.597 109.068 35.23 106.193 35.23ZM106.078 24.328C104.215 24.328 102.95 25.662 102.697 27.939H109.298C109.183 25.685 107.964 24.328 106.078 24.328ZM116.552 28.767V35H114.229V22.81H116.391V25.386C117.242 23.707 119.082 22.649 121.083 22.649V25.064C118.461 24.926 116.552 26.076 116.552 28.767ZM132.582 31.366C132.582 33.758 130.719 35.23 127.476 35.23C124.256 35.23 122.347 33.643 122.117 31.021H124.348C124.44 32.539 125.659 33.482 127.522 33.482C129.155 33.482 130.236 32.907 130.236 31.757C130.236 30.745 129.615 30.308 128.097 30.009L126.119 29.641C123.865 29.204 122.6 28.054 122.6 26.214C122.6 24.075 124.463 22.58 127.292 22.58C130.213 22.58 132.191 24.144 132.398 26.651H130.167C130.029 25.179 128.948 24.328 127.315 24.328C125.843 24.328 124.854 24.949 124.854 26.007C124.854 26.996 125.475 27.456 126.947 27.732L129.017 28.123C131.432 28.56 132.582 29.618 132.582 31.366ZM142.638 35H140.108V18.486H142.638V25.386H151.01V18.486H153.54V35H151.01V27.594H142.638V35ZM164.563 29.986V22.81H166.886V35H164.724V33.068C164.08 34.333 162.654 35.23 160.998 35.23C158.537 35.23 156.835 33.781 156.835 30.653V22.81H159.158V30.193C159.158 32.309 160.216 33.183 161.734 33.183C163.298 33.183 164.563 31.895 164.563 29.986ZM181.75 28.905C181.75 32.562 179.634 35.23 176.345 35.23C174.62 35.23 173.148 34.356 172.274 32.815V35H170.112V18.486H172.435V24.903C173.286 23.408 174.689 22.58 176.345 22.58C179.611 22.58 181.75 25.202 181.75 28.905ZM179.335 28.905C179.335 26.145 177.886 24.627 175.885 24.627C173.953 24.627 172.435 26.122 172.435 28.859C172.435 31.55 173.907 33.16 175.885 33.16C177.886 33.16 179.335 31.619 179.335 28.905Z" fill="white"/>
</svg>
